<mxfile host="app.diagrams.net" modified="2021-02-10T07:40:28.649Z" agent="5.0 (Windows)" etag="UILwJHGaUpZJh-WtVHoH" version="14.3.0" type="github">
  <diagram id="8PKnc2TItU4c_QBPlSYt" name="Page-1">
    <mxGraphModel dx="1187" dy="637" grid="1" gridSize="10" guides="1" tooltips="1" connect="1" arrows="1" fold="1" page="1" pageScale="1" pageWidth="850" pageHeight="1100" math="0" shadow="0">
      <root>
        <mxCell id="0" />
        <mxCell id="1" parent="0" />
        <mxCell id="0PAwoPsMKWGdQHZ1jBnO-2" value="" style="ellipse;whiteSpace=wrap;html=1;strokeColor=#999999;" parent="1" vertex="1">
          <mxGeometry x="10" y="10" width="820" height="690" as="geometry" />
        </mxCell>
        <mxCell id="0PAwoPsMKWGdQHZ1jBnO-31" value="" style="ellipse;whiteSpace=wrap;html=1;strokeColor=#999999;aspect=fixed;" parent="1" vertex="1">
          <mxGeometry x="208.14" y="170" width="439.71" height="370" as="geometry" />
        </mxCell>
        <mxCell id="0PAwoPsMKWGdQHZ1jBnO-7" value="" style="endArrow=none;html=1;entryX=0;entryY=0;entryDx=0;entryDy=0;exitX=1;exitY=1;exitDx=0;exitDy=0;strokeColor=#999999;" parent="1" source="0PAwoPsMKWGdQHZ1jBnO-2" target="0PAwoPsMKWGdQHZ1jBnO-2" edge="1">
          <mxGeometry width="50" height="50" relative="1" as="geometry">
            <mxPoint x="400" y="610" as="sourcePoint" />
            <mxPoint x="450" y="560" as="targetPoint" />
          </mxGeometry>
        </mxCell>
        <mxCell id="0PAwoPsMKWGdQHZ1jBnO-8" value="" style="endArrow=none;html=1;exitX=0;exitY=1;exitDx=0;exitDy=0;entryX=1;entryY=0;entryDx=0;entryDy=0;strokeColor=#999999;" parent="1" source="0PAwoPsMKWGdQHZ1jBnO-2" target="0PAwoPsMKWGdQHZ1jBnO-2" edge="1">
          <mxGeometry width="50" height="50" relative="1" as="geometry">
            <mxPoint x="138.62175361945037" y="523.5965004500299" as="sourcePoint" />
            <mxPoint x="470.73078760359704" y="266.39979076196664" as="targetPoint" />
          </mxGeometry>
        </mxCell>
        <mxCell id="0PAwoPsMKWGdQHZ1jBnO-10" value="&lt;div style=&quot;font-size: 17px&quot;&gt;&lt;font style=&quot;font-size: 17px&quot;&gt;Aber das geht doch &lt;br&gt;sowieso nicht!&lt;/font&gt;&lt;/div&gt;&lt;div style=&quot;font-size: 17px&quot;&gt;&lt;font style=&quot;font-size: 17px&quot;&gt;&lt;b style=&quot;font-size: 17px&quot;&gt;Aufgeben&lt;/b&gt;&lt;br style=&quot;font-size: 17px&quot;&gt;&lt;/font&gt;&lt;/div&gt;" style="text;html=1;strokeColor=none;fillColor=none;align=center;verticalAlign=middle;whiteSpace=wrap;rounded=0;fontSize=17;fontColor=#A10050;" parent="1" vertex="1">
          <mxGeometry x="282.5" y="210" width="275" height="80" as="geometry" />
        </mxCell>
        <mxCell id="0PAwoPsMKWGdQHZ1jBnO-11" value="&lt;div style=&quot;font-size: 17px&quot;&gt;&lt;font style=&quot;font-size: 17px&quot;&gt;Aber die anderen &lt;br style=&quot;font-size: 17px;&quot;&gt;sollen erstmal!&lt;br style=&quot;font-size: 17px&quot;&gt;&lt;/font&gt;&lt;/div&gt;&lt;div style=&quot;font-size: 17px&quot;&gt;&lt;font style=&quot;font-size: 17px&quot;&gt;&lt;b style=&quot;font-size: 17px&quot;&gt;Verantwortung abweisen&lt;/b&gt;&lt;br style=&quot;font-size: 17px&quot;&gt;&lt;/font&gt;&lt;/div&gt;" style="text;html=1;strokeColor=none;fillColor=none;align=center;verticalAlign=middle;whiteSpace=wrap;rounded=0;fontSize=17;fontColor=#47756D;" parent="1" vertex="1">
          <mxGeometry x="302.99" y="436.96" width="234.02" height="80" as="geometry" />
        </mxCell>
        <mxCell id="0PAwoPsMKWGdQHZ1jBnO-12" value="&lt;div style=&quot;font-size: 17px&quot;&gt;&lt;font style=&quot;font-size: 17px&quot;&gt;Aber das ist zu teuer!&lt;br style=&quot;font-size: 17px&quot;&gt;&lt;/font&gt;&lt;/div&gt;&lt;div style=&quot;font-size: 17px&quot;&gt;&lt;font style=&quot;font-size: 17px&quot;&gt;&lt;b style=&quot;font-size: 17px&quot;&gt;Kosten betonen&lt;/b&gt;&lt;br style=&quot;font-size: 17px&quot;&gt;&lt;/font&gt;&lt;/div&gt;" style="text;html=1;strokeColor=none;fillColor=none;align=center;verticalAlign=middle;whiteSpace=wrap;rounded=0;fontSize=17;fontColor=#405573;" parent="1" vertex="1">
          <mxGeometry x="491.25" y="322.5" width="150" height="65" as="geometry" />
        </mxCell>
        <mxCell id="0PAwoPsMKWGdQHZ1jBnO-13" value="&lt;div style=&quot;font-size: 17px&quot;&gt;&lt;font style=&quot;font-size: 17px&quot;&gt;Aber bitte &lt;br&gt;nicht zu viel!&lt;br style=&quot;font-size: 17px&quot;&gt;&lt;/font&gt;&lt;/div&gt;&lt;div style=&quot;font-size: 17px&quot;&gt;&lt;font style=&quot;font-size: 17px&quot;&gt;&lt;b style=&quot;font-size: 17px&quot;&gt;Wandel &lt;br&gt;scheuen&lt;/b&gt;&lt;br style=&quot;font-size: 17px&quot;&gt;&lt;/font&gt;&lt;/div&gt;" style="text;html=1;strokeColor=none;fillColor=none;align=center;verticalAlign=middle;whiteSpace=wrap;rounded=0;fontSize=17;fontColor=#99390F;" parent="1" vertex="1">
          <mxGeometry x="210" y="322.19" width="142" height="85.62" as="geometry" />
        </mxCell>
        <mxCell id="0PAwoPsMKWGdQHZ1jBnO-17" value="&lt;b style=&quot;font-size: 12px;&quot;&gt;Veränderung ist unmöglich.&lt;/b&gt; Die&amp;nbsp; wirklich notwendigen Veränderungen widersprechen doch unserem Lebensstil und der menschlichen Natur. Das ist doch in unserer Demokratie sowieso nicht machbar. " style="text;html=1;strokeColor=none;fillColor=none;align=left;verticalAlign=middle;whiteSpace=wrap;rounded=0;fontSize=12;fontColor=#A10050;" parent="1" vertex="1">
          <mxGeometry x="210" y="70" width="228.49" height="80" as="geometry" />
        </mxCell>
        <mxCell id="0PAwoPsMKWGdQHZ1jBnO-18" value="&lt;b style=&quot;font-size: 12px&quot;&gt;Untergangshyterie.&lt;/b&gt; Alles was wir machen können ist doch sowieso zu wenig / zu spät. Wir sollten uns jetzt einfach auf den Klimawandel&amp;nbsp; einrichten und ein wenig Gottvertrauen&amp;nbsp; haben." style="text;html=1;strokeColor=none;fillColor=none;align=left;verticalAlign=middle;whiteSpace=wrap;rounded=0;fontSize=12;fontColor=#A10050;" parent="1" vertex="1">
          <mxGeometry x="462.5" y="70" width="167.5" height="80" as="geometry" />
        </mxCell>
        <mxCell id="0PAwoPsMKWGdQHZ1jBnO-19" value="&lt;font style=&quot;font-size: 12px&quot;&gt;&lt;b style=&quot;font-size: 12px&quot;&gt;Politischer Perfektionismus.&lt;/b&gt; Wir sollten nur Maßnahmen verabschieden, die auch wirklich perfekt sind und auch von allen akzeptiert werden. Sonst lohnt sich das doch nicht.&lt;/font&gt;" style="text;html=1;strokeColor=none;fillColor=none;align=left;verticalAlign=middle;whiteSpace=wrap;rounded=0;fontSize=12;fontColor=#405573;" parent="1" vertex="1">
          <mxGeometry x="636.61" y="436.96" width="142" height="80" as="geometry" />
        </mxCell>
        <mxCell id="0PAwoPsMKWGdQHZ1jBnO-20" value="&lt;font style=&quot;font-size: 12px&quot;&gt;&lt;b style=&quot;font-size: 12px&quot;&gt;Soziale Gerechtigkeit als Vorwand&lt;/b&gt;. Das können sich die kleinen Leute doch nicht leisten. Wir können doch die hart arbeitenden Familien nicht um ihren Urlaub bringen.&lt;br style=&quot;font-size: 12px&quot;&gt;&lt;/font&gt;" style="text;html=1;strokeColor=none;fillColor=none;align=left;verticalAlign=middle;whiteSpace=wrap;rounded=0;fontSize=12;fontColor=#405573;" parent="1" vertex="1">
          <mxGeometry x="666.25" y="315" width="163.75" height="80" as="geometry" />
        </mxCell>
        <mxCell id="0PAwoPsMKWGdQHZ1jBnO-21" value="&lt;font style=&quot;font-size: 12px&quot;&gt;&lt;b style=&quot;font-size: 12px&quot;&gt;Wohlstandsverlust&lt;/b&gt;. Aber unser Wohlstand basiert doch auf Kohle, Öl und Gas. Wenn wir die jetzt abschaffen, kehren wir doch&amp;nbsp; in die Steinzeit zurück. &lt;br style=&quot;font-size: 12px&quot;&gt;&lt;/font&gt;" style="text;html=1;strokeColor=none;fillColor=none;align=left;verticalAlign=middle;whiteSpace=wrap;rounded=0;fontSize=12;fontColor=#405573;" parent="1" vertex="1">
          <mxGeometry x="641.65" y="190" width="136.96" height="80" as="geometry" />
        </mxCell>
        <mxCell id="0PAwoPsMKWGdQHZ1jBnO-22" value="&lt;font style=&quot;font-size: 12px&quot;&gt;&lt;b style=&quot;font-size: 12px&quot;&gt;Radikaler Individualismus.&lt;/b&gt; Das liegt doch in der Verantwortung jedes Einzelnen. Jede KonsumentIn kann doch entscheiden, wie sie heizt und welche Verkehrs-mittel sie nutzt.&lt;br style=&quot;font-size: 12px&quot;&gt;&lt;/font&gt;" style="text;html=1;strokeColor=none;fillColor=none;align=left;verticalAlign=middle;whiteSpace=wrap;rounded=0;fontSize=12;fontColor=#47756D;" parent="1" vertex="1">
          <mxGeometry x="280" y="610" width="320" height="80" as="geometry" />
        </mxCell>
        <mxCell id="0PAwoPsMKWGdQHZ1jBnO-23" value="&lt;font style=&quot;font-size: 12px&quot;&gt;&lt;b style=&quot;font-size: 12px&quot;&gt;Whataboutism.&lt;/b&gt; Aber Deutschland ist doch sowieso schon so vorbildlich. Erstmal sollen die anderen ihre Emissionen reduzieren.&lt;br style=&quot;font-size: 12px&quot;&gt;&lt;/font&gt;" style="text;html=1;strokeColor=none;fillColor=none;align=left;verticalAlign=middle;whiteSpace=wrap;rounded=0;fontSize=12;fontColor=#47756D;" parent="1" vertex="1">
          <mxGeometry x="208.14" y="550" width="201.86" height="70" as="geometry" />
        </mxCell>
        <mxCell id="0PAwoPsMKWGdQHZ1jBnO-24" value="&lt;font style=&quot;font-size: 12px&quot;&gt;&lt;b style=&quot;font-size: 12px&quot;&gt;Trittbrettfahrer.&lt;/b&gt; Zu starker Klimaschutz schadet uns nur - wenn wir hier zu viel Vorarbeit leisten, ruhen sich die anderen doch darauf aus.&lt;br style=&quot;font-size: 12px&quot;&gt;&lt;/font&gt;" style="text;html=1;strokeColor=none;fillColor=none;align=left;verticalAlign=middle;whiteSpace=wrap;rounded=0;fontSize=12;fontColor=#47756D;" parent="1" vertex="1">
          <mxGeometry x="425.40000000000003" y="550" width="216.25" height="60" as="geometry" />
        </mxCell>
        <mxCell id="0PAwoPsMKWGdQHZ1jBnO-25" value="&lt;font style=&quot;font-size: 12px;&quot;&gt;&lt;font style=&quot;font-size: 12px;&quot;&gt;&lt;b style=&quot;font-size: 12px;&quot;&gt;Fortschrittsglaube. &lt;/b&gt;Der technologische Fortschrittwird es schon richten - darauf können wir vertrauen.&amp;nbsp; &lt;/font&gt;&lt;br style=&quot;font-size: 12px;&quot;&gt;&lt;/font&gt;" style="text;html=1;strokeColor=none;fillColor=none;align=left;verticalAlign=middle;whiteSpace=wrap;rounded=0;fontSize=12;fontColor=#99390F;" parent="1" vertex="1">
          <mxGeometry x="80" y="170" width="120" height="80" as="geometry" />
        </mxCell>
        <mxCell id="0PAwoPsMKWGdQHZ1jBnO-26" value="&lt;font style=&quot;font-size: 12px&quot;&gt;&lt;b style=&quot;font-size: 12px&quot;&gt;Brückentechnologismus. &lt;/b&gt;Kohle/Öl/Gas sind Teil der Lösung. Unsere Kraftwerke werden auch immer effizienter.&lt;br style=&quot;font-size: 12px&quot;&gt;&lt;/font&gt;" style="text;html=1;strokeColor=none;fillColor=none;align=left;verticalAlign=middle;whiteSpace=wrap;rounded=0;fontSize=12;fontColor=#99390F;" parent="1" vertex="1">
          <mxGeometry x="39.12" y="260" width="151.75" height="80" as="geometry" />
        </mxCell>
        <mxCell id="0PAwoPsMKWGdQHZ1jBnO-27" value="&lt;font style=&quot;font-size: 12px&quot;&gt;&lt;font style=&quot;font-size: 12px&quot;&gt;&lt;b style=&quot;font-size: 12px&quot;&gt;Leere Versprechen. &lt;/b&gt;Wir sind Klimaretter, weil wir 0.1% weniger ausstoßen als sonst und uns auch fest vornehmen, in Zukunft noch viel mehr zu tun. &lt;/font&gt;&lt;br style=&quot;font-size: 12px&quot;&gt;&lt;/font&gt;" style="text;html=1;strokeColor=none;fillColor=none;align=left;verticalAlign=middle;whiteSpace=wrap;rounded=0;fontSize=12;fontColor=#99390F;" parent="1" vertex="1">
          <mxGeometry x="34.989999999999995" y="356.96" width="160.01" height="80" as="geometry" />
        </mxCell>
        <mxCell id="0PAwoPsMKWGdQHZ1jBnO-28" value="&lt;font style=&quot;font-size: 12px&quot;&gt;&lt;b style=&quot;font-size: 12px&quot;&gt;Fördern statt fordern. &lt;/b&gt;&lt;span style=&quot;font-size: 12px&quot;&gt;Das geht doch sicher wunderbar mit &lt;/span&gt;Eigen-verantwortung und Anreizen, wir wollen doch keine Verbote.&lt;br style=&quot;font-size: 12px&quot;&gt;&lt;/font&gt;" style="text;html=1;strokeColor=none;fillColor=none;align=left;verticalAlign=middle;whiteSpace=wrap;rounded=0;fontSize=12;fontColor=#99390F;" parent="1" vertex="1">
          <mxGeometry x="78.14" y="460" width="130" height="80" as="geometry" />
        </mxCell>
        <mxCell id="0PAwoPsMKWGdQHZ1jBnO-32" value="" style="ellipse;whiteSpace=wrap;html=1;strokeColor=#999999;aspect=fixed;" parent="1" vertex="1">
          <mxGeometry x="348.75" y="305.05" width="142.5" height="119.91" as="geometry" />
        </mxCell>
        <mxCell id="0PAwoPsMKWGdQHZ1jBnO-9" value="&lt;div style=&quot;font-size: 21px;&quot;&gt;Klimaschutz&lt;/div&gt;&lt;div style=&quot;font-size: 21px;&quot; align=&quot;center&quot;&gt;ja, aber...&lt;br style=&quot;font-size: 21px;&quot;&gt;&lt;/div&gt;" style="text;html=1;strokeColor=none;fillColor=none;align=center;verticalAlign=middle;whiteSpace=wrap;rounded=0;fontSize=21;" parent="1" vertex="1">
          <mxGeometry x="345" y="330" width="150" height="70" as="geometry" />
        </mxCell>
      </root>
    </mxGraphModel>
  </diagram>
</mxfile>
